<svg width="420" height="520" viewBox="0 0 420 520" fill="none" xmlns="http://www.w3.org/2000/svg">
  <defs>
    <linearGradient id="dressBody" x1="210" y1="56" x2="210" y2="474" gradientUnits="userSpaceOnUse">
      <stop stop-color="#EF6E93"/>
      <stop offset="1" stop-color="#AF365F"/>
    </linearGradient>
    <linearGradient id="dressGlow" x1="122" y1="128" x2="304" y2="470" gradientUnits="userSpaceOnUse">
      <stop stop-color="#FFC0D2" stop-opacity=".62"/>
      <stop offset="1" stop-color="#A83760" stop-opacity=".28"/>
    </linearGradient>
    <filter id="silkNoise" x="-20%" y="-20%" width="140%" height="140%" color-interpolation-filters="sRGB">
      <feTurbulence type="fractalNoise" baseFrequency="0.9" numOctaves="2" seed="13"/>
      <feColorMatrix type="saturate" values="0"/>
      <feComponentTransfer>
        <feFuncA type="table" tableValues="0 0.06"/>
      </feComponentTransfer>
    </filter>
  </defs>

  <path d="M176 56H244V96C244 114 228 128 210 128C192 128 176 114 176 96V56Z" fill="#F7B6CC" stroke="#A53A5E" stroke-width="8"/>
  <path d="M120 124L174 100H246L300 124L336 466H84L120 124Z" fill="url(#dressBody)" stroke="#A53A5E" stroke-width="8"/>
  <path d="M146 166C174 180 246 180 274 166" stroke="#F3A6C2" stroke-width="5" stroke-linecap="round"/>
  <path d="M128 230C163 247 257 247 292 230" stroke="#F3A6C2" stroke-width="5" stroke-linecap="round"/>
  <path d="M114 294C153 314 267 314 306 294" stroke="#F3A6C2" stroke-width="5" stroke-linecap="round"/>
  <path d="M102 360C148 380 272 380 318 360" stroke="#F3A6C2" stroke-width="5" stroke-linecap="round"/>
  <path d="M116 462H304" stroke="#A83B60" stroke-width="10" stroke-linecap="round"/>

  <path d="M126 132H294L320 458H100L126 132Z" fill="url(#dressGlow)" opacity=".4"/>
  <rect x="120" y="126" width="180" height="334" filter="url(#silkNoise)" opacity=".38"/>
</svg>
