<svg width="420" height="520" viewBox="0 0 420 520" fill="none" xmlns="http://www.w3.org/2000/svg">
  <defs>
    <linearGradient id="jacketBody" x1="210" y1="54" x2="210" y2="470" gradientUnits="userSpaceOnUse">
      <stop stop-color="#2E253D"/>
      <stop offset="1" stop-color="#14111A"/>
    </linearGradient>
    <linearGradient id="jacketLap" x1="184" y1="128" x2="237" y2="452" gradientUnits="userSpaceOnUse">
      <stop stop-color="#4A3B63"/>
      <stop offset="1" stop-color="#1A1524"/>
    </linearGradient>
    <filter id="jacketNoise" x="-20%" y="-20%" width="140%" height="140%" color-interpolation-filters="sRGB">
      <feTurbulence type="fractalNoise" baseFrequency="0.8" numOctaves="2" seed="11"/>
      <feColorMatrix type="saturate" values="0"/>
      <feComponentTransfer>
        <feFuncA type="table" tableValues="0 0.06"/>
      </feComponentTransfer>
    </filter>
  </defs>

  <path d="M121 74L164 54H258L298 74L356 143L312 188L278 150V456H142V150L108 188L64 143L121 74Z" fill="url(#jacketBody)" stroke="#8E76B5" stroke-width="8"/>
  <path d="M176 54H244V94C244 112 228 126 210 126C192 126 176 112 176 94V54Z" fill="#352B47" stroke="#8E76B5" stroke-width="8"/>
  <path d="M180 138L210 206L241 138V456H180V138Z" fill="url(#jacketLap)"/>
  <path d="M210 132V456" stroke="#B39FD4" stroke-width="4" stroke-linecap="round"/>
  <path d="M138 220C170 231 250 231 282 220" stroke="#5D4A7B" stroke-width="5" stroke-linecap="round"/>
  <path d="M138 284C170 295 250 295 282 284" stroke="#5D4A7B" stroke-width="5" stroke-linecap="round"/>
  <path d="M138 348C170 359 250 359 282 348" stroke="#5D4A7B" stroke-width="5" stroke-linecap="round"/>
  <circle cx="210" cy="240" r="5" fill="#BFA9DF"/>
  <circle cx="210" cy="288" r="5" fill="#BFA9DF"/>
  <circle cx="210" cy="336" r="5" fill="#BFA9DF"/>

  <rect x="124" y="70" width="172" height="390" filter="url(#jacketNoise)" opacity=".42"/>
</svg>
