<svg width="420" height="520" viewBox="0 0 420 520" fill="none" xmlns="http://www.w3.org/2000/svg">
  <defs>
    <linearGradient id="shoeA" x1="68" y1="286" x2="214" y2="420" gradientUnits="userSpaceOnUse">
      <stop stop-color="#FAFCFF"/>
      <stop offset="1" stop-color="#C6D0E4"/>
    </linearGradient>
    <linearGradient id="shoeB" x1="214" y1="266" x2="368" y2="418" gradientUnits="userSpaceOnUse">
      <stop stop-color="#FAFCFF"/>
      <stop offset="1" stop-color="#C6D0E4"/>
    </linearGradient>
    <filter id="shoeNoise" x="-20%" y="-20%" width="140%" height="140%" color-interpolation-filters="sRGB">
      <feTurbulence type="fractalNoise" baseFrequency="1.1" numOctaves="2" seed="6"/>
      <feColorMatrix type="saturate" values="0"/>
      <feComponentTransfer>
        <feFuncA type="table" tableValues="0 0.05"/>
      </feComponentTransfer>
    </filter>
  </defs>

  <path d="M60 286H206L238 360V410H58C47 410 38 401 38 390V344L60 286Z" fill="url(#shoeA)" stroke="#7A8EA9" stroke-width="8"/>
  <path d="M216 266H360L388 344V410H212C201 410 192 401 192 390V330L216 266Z" fill="url(#shoeB)" stroke="#7A8EA9" stroke-width="8"/>
  <path d="M78 328H193" stroke="#9FAFC6" stroke-width="5" stroke-linecap="round"/>
  <path d="M229 306H344" stroke="#9FAFC6" stroke-width="5" stroke-linecap="round"/>
  <path d="M88 352H170" stroke="#9FAFC6" stroke-width="4" stroke-linecap="round"/>
  <path d="M243 336H325" stroke="#9FAFC6" stroke-width="4" stroke-linecap="round"/>
  <path d="M68 382H222" stroke="#596981" stroke-width="10" stroke-linecap="round"/>
  <path d="M219 382H374" stroke="#596981" stroke-width="10" stroke-linecap="round"/>

  <rect x="56" y="286" width="170" height="124" filter="url(#shoeNoise)" opacity=".42"/>
  <rect x="210" y="266" width="164" height="144" filter="url(#shoeNoise)" opacity=".42"/>
</svg>
